# Blender 4.0.1
# www.blender.org
mtllib Screen2.mtl
o Cylinder
v 1.299469 -0.306894 -0.983771
v 1.299460 2.587025 -0.983778
v 1.510048 -0.306893 0.125399
v 1.510048 2.587027 0.125404
v 1.304312 -0.306894 1.235469
v 1.304311 2.587026 1.235475
v 0.710210 -0.306895 2.195532
v 0.710212 2.587026 2.195530
v -0.191445 -0.306894 2.874981
v -0.191444 2.587025 2.874981
v -1.409051 -0.306894 3.218383
v -1.409055 2.587026 3.218384
v -1.422505 -0.306894 -2.954818
v -1.422505 2.587026 -2.954817
v -0.203432 -0.306895 -2.616735
v -0.203428 2.587026 -2.616734
v 0.701195 -0.306894 -1.941249
v 0.701213 2.587026 -1.941226
vn 0.9825 -0.0000 -0.1865
vn 0.9833 -0.0000 0.1822
vn 0.8504 -0.0000 0.5262
vn 0.6018 -0.0000 0.7986
vn 0.2714 -0.0000 0.9625
vn 0.2672 -0.0000 -0.9636
vn 0.5983 -0.0000 -0.8013
vn 0.8481 -0.0000 -0.5299
vt 1.000000 0.500000
vt 1.000000 1.000000
vt 0.968750 1.000000
vt 0.968750 0.500000
vt 0.937500 1.000000
vt 0.937500 0.500000
vt 0.906250 1.000000
vt 0.906250 0.500000
vt 0.875000 1.000000
vt 0.875000 0.500000
vt 0.843750 1.000000
vt 0.843750 0.500000
vt 0.093750 0.500000
vt 0.093750 1.000000
vt 0.062500 1.000000
vt 0.062500 0.500000
vt 0.031250 1.000000
vt 0.031250 0.500000
vt 0.000000 1.000000
vt 0.000000 0.500000
s 0
f 1/1/1 2/2/1 4/3/1 3/4/1
f 3/4/2 4/3/2 6/5/2 5/6/2
f 5/6/3 6/5/3 8/7/3 7/8/3
f 7/8/4 8/7/4 10/9/4 9/10/4
f 9/10/5 10/9/5 12/11/5 11/12/5
f 13/13/6 14/14/6 16/15/6 15/16/6
f 15/16/7 16/15/7 18/17/7 17/18/7
f 17/18/8 18/17/8 2/19/8 1/20/8
